<svg width="24" height="24" viewBox="0 0 24 24" fill="none" xmlns="http://www.w3.org/2000/svg">
<path fill-rule="evenodd" clip-rule="evenodd" d="M24 3.6001H0V20.4001H24V3.6001ZM11.5102 12.3927C11.5102 14.8554 10.0969 16.3952 7.85039 16.3952C5.58809 16.3952 4.18535 14.8554 4.18535 12.3927C4.18535 9.92471 5.60918 8.39541 7.85039 8.39541C10.0916 8.39541 11.5102 9.92998 11.5102 12.3927ZM5.81484 12.3927C5.81484 14.0063 6.59531 15.0452 7.85039 15.0452C9.08965 15.0452 9.88066 14.0063 9.88066 12.3927C9.88066 10.7737 9.08438 9.74541 7.85039 9.74541C6.61113 9.74541 5.81484 10.7737 5.81484 12.3927ZM14.6109 16.2001V13.8745L15.365 12.9675L17.5746 16.2001H19.4836L16.5146 11.9233L19.2885 8.59053H17.5166L14.7059 12.0077H14.6109V8.59053H13.0184V16.2001H14.6109Z" fill="#43474D"/>
</svg>
