<svg width="25" height="24" viewBox="0 0 25 24" fill="none" xmlns="http://www.w3.org/2000/svg">
<path fill-rule="evenodd" clip-rule="evenodd" d="M5.14344 15.6582C4.41555 14.9426 4.41555 13.7824 5.14344 13.0669L14.2089 4.15495L14.7437 3.62917L15.2786 4.15495L21.0236 9.80266L21.5584 10.3284L21.0236 10.8542L16.0993 15.6951L12.8164 18.9224L12.5949 19.1402H12.2816H8.99873L8.68543 19.1402L8.46389 18.9224L5.14344 15.6582ZM6.21312 14.1184C6.076 14.2532 6.076 14.4718 6.21312 14.6066L9.31204 17.653H11.9683L12.853 16.7833L8.17763 12.1872L6.21312 14.1184ZM15.0296 14.6435L13.9226 15.7318L9.24731 11.1356L14.7437 5.73229L19.4191 10.3284L15.0296 14.6435ZM3.66295 18.6944H5.16815L6.69399 20.1944H3.66295V18.6944ZM21.6533 20.1944H13.3462L14.8721 18.6944H21.6533V20.1944Z" fill="#43474D"/>
</svg>
