<svg width="24" height="24" viewBox="0 0 24 24" fill="none" xmlns="http://www.w3.org/2000/svg">
<mask id="path-1-inside-1_7469_21889" fill="white">
<path fill-rule="evenodd" clip-rule="evenodd" d="M3.87268 11.021L2.00076 11.9869C2.00025 12.0287 2 12.0706 2 12.1126C2 13.7277 2.37452 15.2545 3.04053 16.6088L5.13363 16.6577C5.75571 16.6723 6.2136 17.2453 6.0905 17.8553L5.66961 19.9407C6.87443 20.9382 8.31371 21.6569 9.89114 21.9995L11.2299 20.3804C11.6299 19.8967 12.3713 19.8967 12.7713 20.3804L14.1104 22C15.6877 21.6577 17.127 20.9394 18.3319 19.9424L17.9107 17.8553C17.7876 17.2453 18.2455 16.6723 18.8676 16.6577L20.963 16.6088C21.629 15.2544 22.0035 13.7277 22.0035 12.1126C22.0035 12.071 22.0033 12.0295 22.0028 11.9881L20.1285 11.021C19.5782 10.737 19.4156 10.0262 19.7878 9.53128L21.0658 7.83187C20.3914 6.37441 19.3832 5.10639 18.1407 4.12837L16.2443 4.99773C15.6753 5.25859 15.0092 4.93845 14.8574 4.33116L14.3445 2.27894C13.593 2.09659 12.8086 2 12.0018 2C11.1941 2 10.4088 2.0968 9.65653 2.27954L9.14378 4.33116C8.992 4.93845 8.32592 5.25859 7.75689 4.99773L5.86198 4.12904C4.61933 5.1074 3.61109 6.37585 2.93678 7.83378L4.21334 9.53128C4.58554 10.0262 4.423 10.737 3.87268 11.021ZM12.0005 15C13.6573 15 15.0005 13.6569 15.0005 12C15.0005 10.3431 13.6573 9 12.0005 9C10.3436 9 9.00049 10.3431 9.00049 12C9.00049 13.6569 10.3436 15 12.0005 15Z"/>
</mask>
<path d="M2.00076 11.9869L1.31291 10.6539L0.511719 11.0674L0.500865 11.9689L2.00076 11.9869ZM3.87268 11.021L3.18484 9.68799L3.18484 9.68799L3.87268 11.021ZM3.04053 16.6088L1.69449 17.2708L2.09596 18.0872L3.00549 18.1084L3.04053 16.6088ZM5.13363 16.6577L5.09858 18.1573H5.09858L5.13363 16.6577ZM6.0905 17.8553L4.62015 17.5585L6.0905 17.8553ZM5.66961 19.9407L4.19926 19.644L4.0217 20.5238L4.71305 21.0962L5.66961 19.9407ZM9.89114 21.9995L9.57277 23.4654L10.4652 23.6592L11.0471 22.9554L9.89114 21.9995ZM11.2299 20.3804L10.0739 19.4245H10.0739L11.2299 20.3804ZM12.7713 20.3804L11.6153 21.3362H11.6153L12.7713 20.3804ZM14.1104 22L12.9544 22.9558L13.5362 23.6594L14.4285 23.4658L14.1104 22ZM18.3319 19.9424L19.2882 21.0981L19.9799 20.5257L19.8023 19.6456L18.3319 19.9424ZM17.9107 17.8553L19.381 17.5585L17.9107 17.8553ZM18.8676 16.6577L18.9026 18.1573H18.9026L18.8676 16.6577ZM20.963 16.6088L20.998 18.1084L21.9076 18.0871L22.3091 17.2707L20.963 16.6088ZM22.0028 11.9881L23.5027 11.9702L23.4919 11.0686L22.6906 10.6551L22.0028 11.9881ZM20.1285 11.021L19.4407 12.354L20.1285 11.021ZM19.7878 9.53128L18.589 8.62973L18.589 8.62973L19.7878 9.53128ZM21.0658 7.83187L22.2647 8.73342L22.804 8.01625L22.4271 7.2019L21.0658 7.83187ZM18.1407 4.12837L19.0684 2.94971L18.3485 2.38299L17.5156 2.76482L18.1407 4.12837ZM16.2443 4.99773L16.8694 6.36127L16.8694 6.36127L16.2443 4.99773ZM14.8574 4.33116L13.4022 4.69486L13.4022 4.69486L14.8574 4.33116ZM14.3445 2.27894L15.7998 1.91524L15.5798 1.03517L14.6982 0.821249L14.3445 2.27894ZM9.65653 2.27954L9.30242 0.821941L8.42117 1.03603L8.20129 1.91584L9.65653 2.27954ZM9.14378 4.33116L10.599 4.69486V4.69486L9.14378 4.33116ZM7.75689 4.99773L7.1318 6.36127L7.75689 4.99773ZM5.86198 4.12904L6.48708 2.76549L5.65407 2.38362L4.93408 2.95048L5.86198 4.12904ZM2.93678 7.83378L1.57535 7.20409L1.19874 8.01833L1.73794 8.73533L2.93678 7.83378ZM4.21334 9.53128L3.01451 10.4328L3.01451 10.4328L4.21334 9.53128ZM2.6886 13.3199L4.56053 12.354L3.18484 9.68799L1.31291 10.6539L2.6886 13.3199ZM3.5 12.1126C3.5 12.0766 3.50022 12.0408 3.50065 12.005L0.500865 11.9689C0.500289 12.0167 0.5 12.0646 0.5 12.1126H3.5ZM4.38658 15.9469C3.81981 14.7943 3.5 13.4936 3.5 12.1126H0.5C0.5 13.9618 0.929223 15.7146 1.69449 17.2708L4.38658 15.9469ZM5.16867 15.1581L3.07558 15.1092L3.00549 18.1084L5.09858 18.1573L5.16867 15.1581ZM7.56085 18.152C7.86861 16.6272 6.72387 15.1945 5.16867 15.1581L5.09858 18.1573C4.78754 18.1501 4.5586 17.8635 4.62015 17.5585L7.56085 18.152ZM7.13997 20.2375L7.56085 18.152L4.62015 17.5585L4.19926 19.644L7.13997 20.2375ZM10.2095 20.5337C8.87347 20.2435 7.65166 19.6343 6.62617 18.7853L4.71305 21.0962C6.0972 22.2421 7.75396 23.0703 9.57277 23.4654L10.2095 20.5337ZM10.0739 19.4245L8.73513 21.0437L11.0471 22.9554L12.3859 21.3362L10.0739 19.4245ZM13.9273 19.4245C12.9274 18.2153 11.0738 18.2153 10.0739 19.4245L12.3859 21.3362C12.186 21.5781 11.8152 21.5781 11.6153 21.3362L13.9273 19.4245ZM15.2664 21.0441L13.9273 19.4245L11.6153 21.3362L12.9544 22.9558L15.2664 21.0441ZM17.3756 18.7867C16.3501 19.6353 15.1283 20.2442 13.7923 20.5341L14.4285 23.4658C16.2472 23.0712 17.9039 22.2435 19.2882 21.0981L17.3756 18.7867ZM16.4403 18.152L16.8616 20.2391L19.8023 19.6456L19.381 17.5585L16.4403 18.152ZM18.8325 15.1581C17.2773 15.1945 16.1326 16.6272 16.4403 18.152L19.381 17.5585C19.4426 17.8635 19.2136 18.1501 18.9026 18.1573L18.8325 15.1581ZM20.928 15.1092L18.8325 15.1581L18.9026 18.1573L20.998 18.1084L20.928 15.1092ZM20.5035 12.1126C20.5035 13.4936 20.1837 14.7943 19.617 15.9468L22.3091 17.2707C23.0743 15.7145 23.5035 13.9618 23.5035 12.1126H20.5035ZM20.5029 12.006C20.5033 12.0415 20.5035 12.077 20.5035 12.1126H23.5035C23.5035 12.065 23.5032 12.0176 23.5027 11.9702L20.5029 12.006ZM19.4407 12.354L21.3149 13.3211L22.6906 10.6551L20.8164 9.68799L19.4407 12.354ZM18.589 8.62973C17.6585 9.86706 18.0649 11.644 19.4407 12.354L20.8164 9.68799C21.0915 9.82997 21.1728 10.1854 20.9867 10.4328L18.589 8.62973ZM19.867 6.93031L18.589 8.62973L20.9867 10.4328L22.2647 8.73342L19.867 6.93031ZM17.2129 5.30703C18.2708 6.13971 19.1299 7.2201 19.7045 8.46183L22.4271 7.2019C21.6529 5.52871 20.4956 4.07308 19.0684 2.94971L17.2129 5.30703ZM16.8694 6.36127L18.7658 5.49191L17.5156 2.76482L15.6192 3.63418L16.8694 6.36127ZM13.4022 4.69486C13.7816 6.21309 15.4468 7.01342 16.8694 6.36127L15.6192 3.63418C15.9037 3.50375 16.2368 3.66382 16.3126 3.96746L13.4022 4.69486ZM12.8893 2.64264L13.4022 4.69486L16.3127 3.96746L15.7998 1.91524L12.8893 2.64264ZM12.0018 3.5C12.6884 3.5 13.3542 3.58216 13.9908 3.73664L14.6982 0.821249C13.8319 0.611015 12.9287 0.5 12.0018 0.5V3.5ZM10.0106 3.73715C10.6479 3.58234 11.3143 3.5 12.0018 3.5V0.5C11.0738 0.5 10.1696 0.611259 9.30242 0.821941L10.0106 3.73715ZM10.599 4.69486L11.1118 2.64324L8.20129 1.91584L7.68854 3.96746L10.599 4.69486ZM7.1318 6.36127C8.55437 7.01343 10.2196 6.21309 10.599 4.69486L7.68854 3.96746C7.76443 3.66382 8.09747 3.50375 8.38198 3.63418L7.1318 6.36127ZM5.23689 5.49259L7.1318 6.36127L8.38198 3.63418L6.48708 2.76549L5.23689 5.49259ZM4.29821 8.46346C4.87272 7.22133 5.7319 6.14057 6.78988 5.3076L4.93408 2.95048C3.50676 4.07424 2.34947 5.53037 1.57535 7.20409L4.29821 8.46346ZM5.41218 8.62973L4.13561 6.93222L1.73794 8.73533L3.01451 10.4328L5.41218 8.62973ZM4.56053 12.354C5.93632 11.644 6.34267 9.86705 5.41218 8.62973L3.01451 10.4328C2.82841 10.1854 2.90968 9.82997 3.18484 9.68799L4.56053 12.354ZM13.5005 12C13.5005 12.8284 12.8289 13.5 12.0005 13.5V16.5C14.4858 16.5 16.5005 14.4853 16.5005 12H13.5005ZM12.0005 10.5C12.8289 10.5 13.5005 11.1716 13.5005 12H16.5005C16.5005 9.51472 14.4858 7.5 12.0005 7.5V10.5ZM10.5005 12C10.5005 11.1716 11.1721 10.5 12.0005 10.5V7.5C9.51521 7.5 7.50049 9.51472 7.50049 12H10.5005ZM12.0005 13.5C11.1721 13.5 10.5005 12.8284 10.5005 12H7.50049C7.50049 14.4853 9.51521 16.5 12.0005 16.5V13.5Z" fill="#43474D" mask="url(#path-1-inside-1_7469_21889)"/>
</svg>
