<svg width="30" height="30" viewBox="0 0 30 30" fill="none" xmlns="http://www.w3.org/2000/svg">
<rect width="30" height="30" rx="4" fill="#F2F3F5"/>
<path fill-rule="evenodd" clip-rule="evenodd" d="M18.2071 6.5H7.5V23.5H22.5V10.7929L18.2071 6.5Z" fill="#477EDE" fill-opacity="0.5"/>
<path fill-rule="evenodd" clip-rule="evenodd" d="M9.5 8.5H17.5L20.5 11.5V21.5H9.5L9.5 8.5Z" fill="#477EDE"/>
<path d="M14.9583 17.75C16.6763 17.75 18.1387 16.2833 18.6862 15.6551C18.8279 15.4925 18.8279 15.2575 18.6862 15.0949C18.1387 14.4667 16.6763 13 14.9583 13C13.2404 13 11.778 14.4667 11.2305 15.0949C11.0888 15.2575 11.0888 15.4925 11.2305 15.6551C11.778 16.2833 13.2404 17.75 14.9583 17.75Z" fill="white"/>
<path d="M14.9583 16.3649C15.5049 16.3649 15.9479 15.9219 15.9479 15.3753C15.9479 14.8288 15.5049 14.3857 14.9583 14.3857C14.4118 14.3857 13.9688 14.8288 13.9688 15.3753C13.9688 15.9219 14.4118 16.3649 14.9583 16.3649Z" stroke="#477EDE" stroke-linejoin="round"/>
</svg>
