<svg width="24" height="24" viewBox="0 0 24 24" fill="none" xmlns="http://www.w3.org/2000/svg">
<path fill-rule="evenodd" clip-rule="evenodd" d="M3.57675 21.1757L3 19.7787L4.23629 19.3267L5.39858 18.9142L6.48804 18.5416L7.17445 18.3153L7.82936 18.1069L8.4531 17.9162L9.04603 17.7435L9.60849 17.5886L10.1408 17.4517L10.6434 17.3328C10.7247 17.3145 10.8047 17.297 10.8836 17.2802L11.3421 17.1884L11.7717 17.1147C13.0868 16.91 13.972 16.9785 14.4769 17.3262C14.7932 17.544 15.0243 17.7942 15.1655 18.0808C15.4151 18.5876 15.3721 18.9889 15.1388 19.5664L15.0118 19.8607L15.1178 19.8549C15.3318 19.8376 15.6024 19.7943 15.926 19.7239L16.1265 19.6785L16.3516 19.6235L16.8394 19.4928C16.9249 19.4688 17.0125 19.4435 17.1022 19.4171L17.6652 19.245L18.2781 19.0452L18.9408 18.8178L19.653 18.5629L20.4146 18.2803L21 19.6741L19.9462 20.0639L19.2946 20.2959L18.6828 20.5054L18.1097 20.6922C17.925 20.7507 17.7466 20.8054 17.5744 20.8563L17.076 20.9974C16.9159 21.0406 16.7618 21.0799 16.6135 21.1154L16.186 21.2101C15.0235 21.4455 14.271 21.399 13.8322 21.0549C13.4563 20.7602 13.3001 20.3582 13.3527 19.9256C13.3673 19.8051 13.3855 19.7161 13.4219 19.6072L13.4922 19.4224L13.6818 18.9751L13.7255 18.8448C13.7439 18.7759 13.7424 18.7393 13.7305 18.715C13.7102 18.674 13.6563 18.6156 13.5457 18.5395C13.436 18.4639 13.2053 18.4374 12.8597 18.4606L12.6123 18.4834C12.5683 18.4885 12.5228 18.4941 12.476 18.5004L12.1783 18.5455L11.8474 18.6054L11.4839 18.6803L11.0882 18.7701C11.0195 18.7863 10.9496 18.8031 10.8783 18.8206L10.4348 18.933L9.95999 19.0604L9.45428 19.203L8.63861 19.4454L7.75561 19.7221L6.80659 20.0333L5.79289 20.3792L5.08181 20.6292L4.34296 20.8946L3.57675 21.1757Z" fill="#FF0000"/>
<path fill-rule="evenodd" clip-rule="evenodd" d="M14.7275 3.00012L18.9702 7.24276L16.8385 9.37449L12.5958 5.13185L14.7275 3.00012ZM11.8887 5.83896L5.53515 12.1925L4.12094 17.8494L9.77779 16.4352L16.1313 10.0816L11.8887 5.83896Z" fill="#43474D"/>
</svg>
