<svg width="20" height="20" viewBox="0 0 20 20" fill="none" xmlns="http://www.w3.org/2000/svg">
<path fill-rule="evenodd" clip-rule="evenodd" d="M10 2.75C5.99594 2.75 2.75 5.99594 2.75 10C2.75 12.2946 3.81599 14.3402 5.47976 15.6687L6.23654 11.5064C6.26621 11.3432 6.31891 11.1851 6.39307 11.0368L8.43475 6.95344C9.07967 5.66361 10.9203 5.66361 11.5652 6.95344L13.6069 11.0368C13.6811 11.1851 13.7338 11.3432 13.7635 11.5064L14.5202 15.6687C16.184 14.3402 17.25 12.2946 17.25 10C17.25 5.99594 14.0041 2.75 10 2.75ZM10 17.25C8.87023 17.25 7.80081 16.9916 6.84764 16.5306L7.71235 11.7747C7.71386 11.7664 7.7158 11.7581 7.71815 11.75L12.2818 11.75C12.2842 11.7581 12.2861 11.7664 12.2877 11.7747L13.1524 16.5306C12.1992 16.9916 11.1298 17.25 10 17.25ZM11.5365 10.25L10.2236 7.62426C10.1315 7.44 9.86852 7.44 9.77639 7.62426L8.46353 10.25L11.5365 10.25ZM1.25 10C1.25 5.16751 5.16751 1.25 10 1.25C14.8325 1.25 18.75 5.16751 18.75 10C18.75 14.8325 14.8325 18.75 10 18.75C5.16751 18.75 1.25 14.8325 1.25 10Z" fill="#43474D"/>
</svg>
