<svg width="24" height="24" viewBox="0 0 24 24" fill="none" xmlns="http://www.w3.org/2000/svg">
<path fill-rule="evenodd" clip-rule="evenodd" d="M13.982 11.9752C15.1875 11.2862 16 9.98798 16 8.5C16 6.29086 14.2091 4.5 12 4.5C9.79086 4.5 8 6.29086 8 8.5C8 9.98798 8.81248 11.2862 10.018 11.9752C10.1075 12.1032 10.5 12.6962 10.5 13.25C10.5 13.875 10 14.5 10 14.5H4V16H20V14.5H14C14 14.5 13.5 13.875 13.5 13.25C13.5 12.6962 13.8926 12.1032 13.982 11.9752ZM20 19.5V18H4V19.5H20Z" fill="#43474D"/>
</svg>
