<svg width="24" height="24" viewBox="0 0 24 24" fill="none" xmlns="http://www.w3.org/2000/svg">
<path fill-rule="evenodd" clip-rule="evenodd" d="M19.092 7.6569L14.1422 2.70715L10.9602 7.30335L7.07114 8.36401C7.07114 8.36401 6.87159 10.0868 6.36403 11.8995C6.0046 13.1832 4.91313 15.6629 4.30666 17.001C3.93743 16.8314 3.48617 16.8987 3.18205 17.2028C2.79153 17.5934 2.79153 18.2265 3.18205 18.6171C3.57258 19.0076 4.20574 19.0076 4.59627 18.6171C4.90681 18.3065 4.97041 17.8425 4.78706 17.4691C5.97379 16.9026 8.12199 15.9328 9.89957 15.4351C12.5063 14.7052 13.4351 14.728 13.4351 14.728L14.4958 10.8389L19.092 7.6569ZM17.7544 17.3444C17.4496 16.8381 16.8798 16.6445 16.0655 16.6633C14.7327 16.694 12.2695 17.3125 8.2244 18.6695L6.96295 19.0989L7.45212 20.5169L7.87 20.3734C11.9961 18.9623 14.5477 18.2789 15.8551 18.1758L16.1001 18.1629L16.2221 18.1624C16.2977 18.1637 16.3621 18.1681 16.4154 18.1748L16.4251 18.176L16.3479 18.5493C16.2867 18.8554 16.2743 19.0167 16.3107 19.2493C16.3866 19.7346 16.7168 20.0934 17.2254 20.2319C17.8846 20.4113 18.9866 20.2461 20.8476 19.6998L21.429 19.5245L20.9861 18.0913L20.7157 18.1739C19.3039 18.5997 18.3793 18.7922 17.898 18.8064L17.8261 18.806L17.8979 18.4573C17.9814 17.9967 17.9657 17.6955 17.7544 17.3444ZM11.6673 11.546L10.2531 10.1318L8.1318 13.6673L11.6673 11.546Z" fill="#43474D"/>
</svg>
