<svg width="24" height="24" viewBox="0 0 24 24" fill="none" xmlns="http://www.w3.org/2000/svg">
<path fill-rule="evenodd" clip-rule="evenodd" d="M7.90576 21.0978C9.74912 21.0978 11.1888 20.0085 12.1257 18.1804H24V16.6113H12.7579C13.1235 15.4382 13.3368 14.0671 13.3901 12.5589C13.87 12.4599 14.3728 12.399 14.8755 12.399C15.0507 12.399 15.1497 12.4828 15.1497 12.6046C15.1497 13.1759 14.7612 13.6634 14.7612 14.3947C14.7612 15.0802 15.264 15.5296 15.9724 15.5296C16.7629 15.5296 17.6283 14.946 18.3696 14.3369L18.7603 14.0055L19.4393 13.4082C19.7373 13.1515 19.9661 12.9779 20.0933 12.9779C20.1935 12.9779 20.2486 13.0975 20.2981 13.2816L20.401 13.7194L20.4686 13.972C20.6491 14.5734 21.0126 15.225 22.0585 15.225C22.2201 15.225 22.5001 15.1448 22.8987 14.9845L23.2693 14.8274L23.698 14.6311L23.3857 13.0696L23.0144 13.238L22.7149 13.3643L22.4869 13.4485C22.3909 13.4801 22.3217 13.4958 22.2794 13.4958C22.1152 13.4958 22.0423 13.303 21.9847 13.0252L21.8868 12.486C21.757 11.8071 21.5143 11.0355 20.5503 11.0355C19.8161 11.0355 18.9608 11.6541 18.2502 12.2433L17.8786 12.5579L17.5453 12.8432C17.2343 13.1061 16.9952 13.2902 16.8712 13.2902C16.8026 13.2902 16.7722 13.2597 16.7722 13.1759C16.7722 13.1099 16.7908 13.0278 16.8156 12.9342L16.8963 12.623C16.9211 12.5107 16.9397 12.3914 16.9397 12.2695C16.9397 11.3021 16.239 10.7232 15.0964 10.7232C14.5099 10.7232 13.931 10.7765 13.3673 10.8832C13.0931 6.75464 11.0212 3.70776 8.09619 3.70776C5.87959 3.70776 4.32568 5.39878 4.32568 7.75249C4.32568 10.3271 5.95576 12.4828 7.73818 13.8843C6.88506 14.7451 6.22998 15.6896 5.82627 16.6113H0V18.1804H5.40732C5.39209 18.3023 5.38447 18.4166 5.38447 18.5384C5.38447 20.1 6.26807 21.0978 7.90576 21.0978ZM8.99473 12.8027C7.55508 11.6906 6.00117 9.98438 6.00117 7.73731C6.00117 6.37383 6.86191 5.39121 8.10352 5.39121C10.1297 5.39121 11.577 7.94297 11.7141 11.3326C10.7162 11.6982 9.80215 12.201 8.99473 12.8027ZM1.07697 15.5337L2.18466 14.426L3.29234 15.5337L4.19498 14.6311L3.0911 13.5272L4.19498 12.4233L3.29234 11.5207L2.18466 12.6284L1.07578 11.5271L0.176953 12.426L1.28583 13.5272L0.178145 14.6349L1.07697 15.5337ZM10.9529 16.6113H7.74609C8.08887 16.0248 8.57637 15.4154 9.17051 14.8518L9.9265 15.2844L11.1357 14.2522C10.8412 14.0781 10.6229 13.9301 10.4807 13.8082C10.8539 13.5645 11.2576 13.3359 11.6766 13.1379C11.5775 14.4557 11.3262 15.6363 10.9529 16.6113ZM8.1041 19.4221C7.47949 19.4221 7.15195 19.0031 7.15195 18.3709C7.15195 18.31 7.15957 18.249 7.16719 18.1805H10.1379C9.5666 18.965 8.87344 19.4221 8.1041 19.4221Z" fill="#43474D"/>
</svg>
