<svg width="24" height="24" viewBox="0 0 24 24" fill="none" xmlns="http://www.w3.org/2000/svg">
<path fill-rule="evenodd" clip-rule="evenodd" d="M12.8599 4V5.34605V18.3779V19.724L11.6979 19.0445L7.42138 16.5437H4.27218H3.5V15.7716V7.95243V7.18025H4.27218H7.42138L11.6979 4.67948L12.8599 4ZM11.3155 6.6921L8.02036 8.619L7.83977 8.7246H7.63057H5.04436V14.9994H7.63057H7.83977L8.02036 15.105L11.3155 17.0319V6.6921ZM18.9576 11.8619C18.9576 9.39255 17.006 7.42133 14.6359 7.42133V5.87697C17.8923 5.87697 20.5019 8.57341 20.5019 11.8619C20.5019 15.1504 17.8923 17.8468 14.6359 17.8468V16.3025C17.006 16.3025 18.9576 14.3313 18.9576 11.8619ZM14.6359 11.331C14.8967 11.331 15.1378 11.5522 15.1378 11.862C15.1378 12.1718 14.8967 12.393 14.6359 12.393V13.9374C15.7823 13.9374 16.6821 12.9916 16.6821 11.862C16.6821 10.7324 15.7823 9.78664 14.6359 9.78664V11.331Z" fill="#43474D"/>
</svg>
