<svg width="24" height="24" viewBox="0 0 24 24" fill="none" xmlns="http://www.w3.org/2000/svg">
<path d="M21.0017 18.999C19.9399 19.6635 19.2015 20.4063 17.9524 20.5C16.3288 20.6218 15.5346 18.9994 13.9064 18.9994C12.2783 18.9994 11.4853 20.5 9.85714 20.5C8.22896 20.5 7.43129 18.8373 5.8112 18.9994C4.65242 19.1153 3.97159 19.858 3 20.5" stroke="#FF0000" stroke-width="1.5"/>
<path fill-rule="evenodd" clip-rule="evenodd" d="M15 16H15.9922L14.8923 13.25H9.10772L8.00776 16H9V17H5V16H6.39223L11.3036 3.72144H12.6964L17.6078 16H19V17H15V16ZM9.5077 12.25H14.4923L12 6.01898L9.5077 12.25Z" fill="#43474D"/>
</svg>
