<svg width="24" height="24" viewBox="0 0 24 24" fill="none" xmlns="http://www.w3.org/2000/svg">
<path fill-rule="evenodd" clip-rule="evenodd" d="M8.75 7.25C8.75 5.45507 10.2051 4 12 4C13.7949 4 15.25 5.45507 15.25 7.25V10.75C15.25 12.5449 13.7949 14 12 14C10.2051 14 8.75 12.5449 8.75 10.75V7.25ZM12.7477 17.2091C16.1238 16.837 18.75 13.9752 18.75 10.5H17.25C17.25 13.3995 14.8995 15.75 12 15.75C9.1005 15.75 6.75 13.3995 6.75 10.5H5.25C5.25 13.9736 7.87383 16.8344 11.2477 17.2085L11.2482 18.7481H7.59839V20.2481H16.3984V18.7481H12.7482L12.7477 17.2091Z" fill="#273C62"/>
</svg>
