<svg width="24" height="24" viewBox="0 0 24 24" fill="none" xmlns="http://www.w3.org/2000/svg">
<path fill-rule="evenodd" clip-rule="evenodd" d="M19.0919 7.65678L14.1421 2.70703L10.9602 7.30323L7.07108 8.36389C7.07108 8.36389 6.87153 10.0867 6.36397 11.8994C6.00454 13.1831 4.91307 15.6628 4.3066 17.0009C3.93737 16.8313 3.48611 16.8986 3.18199 17.2027C2.79147 17.5932 2.79147 18.2264 3.18199 18.6169C3.57252 19.0075 4.20568 19.0075 4.59621 18.6169C4.90675 18.3064 4.97035 17.8424 4.787 17.469C5.97373 16.9024 8.12193 15.9327 9.89951 15.435C12.5062 14.7051 13.435 14.7278 13.435 14.7278L14.4957 10.8388L19.0919 7.65678ZM17.7543 17.3443C17.4495 16.8379 16.8797 16.6444 16.0655 16.6631C14.7327 16.6939 12.2695 17.3124 8.22434 18.6694L6.96289 19.0988L7.45206 20.5168L7.86994 20.3732C11.9961 18.9622 14.5476 18.2788 15.8551 18.1757L16.1001 18.1627L16.222 18.1623C16.2976 18.1636 16.3621 18.168 16.4153 18.1747L16.425 18.1759L16.3479 18.5492C16.2866 18.8553 16.2743 19.0166 16.3106 19.2491C16.3865 19.7345 16.7167 20.0933 17.2253 20.2317C17.8845 20.4112 18.9865 20.246 20.8475 19.6997L21.4289 19.5243L20.9861 18.0912L20.7156 18.1738C19.3038 18.5995 18.3792 18.792 17.8979 18.8063L17.826 18.8059L17.8978 18.4572C17.9813 17.9965 17.9656 17.6954 17.7543 17.3443ZM11.6673 11.5459L10.2531 10.1317L8.13174 13.6672L11.6673 11.5459Z" fill="#273C62"/>
</svg>
